<svg width="216" height="224" viewBox="0 0 216 224" fill="none" xmlns="http://www.w3.org/2000/svg">
<mask id="mask0" mask-type="alpha" maskUnits="userSpaceOnUse" x="0" y="0" width="216" height="224">
<rect width="216" height="224" fill="#C4C4C4"/>
</mask>
<g mask="url(#mask0)">
<mask id="mask1" mask-type="alpha" maskUnits="userSpaceOnUse" x="-37" y="-124" width="372" height="367">
<ellipse cx="148.992" cy="59.1195" rx="162" ry="158.5" transform="rotate(9.52382 148.992 59.1195)" fill="#FBC980"/>
</mask>
<g mask="url(#mask1)">
<path d="M159.602 204.406C150.611 232.24 88.2945 202.667 81.7079 167.044C75.1214 131.42 107.668 115.053 103.921 82.9911C100.174 50.9293 55.5172 72.3356 16.2503 49.5241C-12.3893 32.8865 20.7681 -34.4714 25.5629 -62.7396C7.76895 -62.3454 -5.74215 -64.1813 14.5779 -73.4722C25.216 -78.3362 27.3421 -73.2291 25.5629 -62.7396C42.189 -63.1079 62.5542 -65.4232 62.5542 -65.4232L218.89 -13.1201L259.5 196.872L159.602 204.406Z" fill="#FBC980"/>
</g>
<mask id="mask2" mask-type="alpha" maskUnits="userSpaceOnUse" x="22" y="-99" width="324" height="317">
<ellipse cx="184" cy="59.5" rx="162" ry="158.5" fill="#F98A31"/>
</mask>
<g mask="url(#mask2)">
<path d="M218.503 201.028C214.241 229.966 147.89 211.112 135.5 177.069C123.11 143.026 152.5 121.5 143.5 90.5C134.5 59.5 94.0001 88.0001 51.5001 72.0001C20.5024 60.3304 42.0579 -11.5852 42.1094 -40.2571C24.626 -36.9242 10.9974 -36.4993 29.5001 -49.0243C39.1867 -55.5814 42.1286 -50.8964 42.1094 -40.2571C58.4455 -43.3713 78.147 -49.0243 78.147 -49.0243L240.982 -23.309L315.777 177.069L218.503 201.028Z" fill="#F98A31"/>
</g>
</g>
</svg>
